<svg xmlns="http://www.w3.org/2000/svg" xml:space="preserve" viewBox="0 0 1024 1024"><path d="M469.5 804.5c20.9 3 41.5 3.2 62.1 3.7 22.7.6 35.3 6.8 43 30.8 6.5 20.4-2.1 42-19.7 52.7-7.4 4.5-15.5 5-23.6 4.4-16.2-1.2-32.3-1-48.5-.8-14.6.1-28.8-3.1-43-5.5-32-5.5-63.3-14-94.6-22.9a164 164 0 0 1-21.6-7.6c-2-.8-3.8-.9-5.8-.3-21.2 6.6-42.6 12-64.1 17.4-23.9 6-47.8 11.8-72.2 15.3a523.3 523.3 0 0 1-56.3 3.3c-18.5-.2-32-11.4-37.7-28.8a55.8 55.8 0 0 1 2.9-39.3c14.9-38.5 28-77.6 43.4-116 2.1-5.3 2.2-9.6-.8-14.9-5.6-9.5-9-20-13.5-30a444.1 444.1 0 0 1-24-72.9 313 313 0 0 1-7.7-49.3c-2.2-22.9-1.3-45.8.2-68.7 1.2-19 5.5-37.5 10.2-55.9 10.7-41.4 29-79.4 54-114a451.5 451.5 0 0 1 52.6-60c20.5-19.8 43.1-36.8 67.1-51.7a482.4 482.4 0 0 1 132.8-54.9 480.2 480.2 0 0 1 252.8 9c29.8 9.5 58 22.5 84.9 38.4 14 8.2 27.5 17 40.7 26.2a383.6 383.6 0 0 1 52.3 46.3c25.3 25.4 46.3 54 63.7 85.4 14.7 26.5 25 54.7 33.2 83.8 4.8 17.2 9 34.7 9.4 52.5.3 26-14 48.3-43.1 49.7-19.5.9-36.9-10.9-40.6-34.9a321.4 321.4 0 0 0-57-141.2 369 369 0 0 0-57.6-60.8 328 328 0 0 0-107.8-59.4 412.3 412.3 0 0 0-77.9-17 353.1 353.1 0 0 0-82.1-.7c-18.1 1.9-36 5.2-53.6 9.4A363.7 363.7 0 0 0 317 269a322 322 0 0 0-74.8 63.4 282 282 0 0 0-68.7 181c.3 30 4.3 59.2 15 87.6 8.6 23 19.2 45 30.6 66.6a59 59 0 0 1 7.2 42.8c-1.6 6.6-4.7 12.7-7.2 19-7 18.4-13.5 37-19 55.8-.6 2-1.7 4-2.5 6-.6 1.5-1.8 3-.5 4.6 1.3 1.4 2.8.6 4.2.3l47.5-11.7c20.5-5 41.2-9.6 61.6-14.9 13-3.3 25-.7 37.3 2.8 17.3 4.8 34 11.4 51.4 16.3a741.9 741.9 0 0 0 70.5 15.9z"/><path d="M617.7 653c0-12.3.2-24.2 0-36-.2-6.3 1.9-11 7.6-14 5.9-3 11.8-3 17.5.7 4.6 2.9 7.8 7.3 11.1 11.4 9 10.7 18 21.3 27.4 31.8 2.6 2.8 4.9 3.2 8.3 1.4 27.2-14.6 56.2-20 86.9-16.5 18 2 34.8 7.6 50.5 16.5 3.8 2.2 6 1.6 8.8-1.5 11.6-13.3 23.4-26.4 35.2-39.6 4-4.6 9-6.6 15-6.6 7.9 0 13.7 5.3 14 13.2.2 4.8 0 9.6 0 14.5.1 31.8.2 63.6.1 95.5 0 6 1 11.8 2.2 17.7a127 127 0 0 1-7.8 79.2c-23 52.7-63.3 83.7-120.7 90a141.8 141.8 0 0 1-104.2-27.5c-32.7-24.7-53-57-57.4-98a103.3 103.3 0 0 1 5-51.3c.5-1.3.6-3 .6-4.4V653z"/></svg>